<svg width="20" height="20" viewBox="0 0 20 20" fill="none" xmlns="http://www.w3.org/2000/svg">
<path d="M16.6668 9.16668C16.463 7.70019 15.7827 6.34139 14.7307 5.29959C13.6787 4.25779 12.3133 3.59077 10.8449 3.4013C9.37648 3.21183 7.88651 3.51041 6.6045 4.25105C5.32248 4.99168 4.31954 6.13329 3.75016 7.50001M3.3335 4.16668V7.50001H6.66683M3.3335 10.8333C3.5373 12.2998 4.21761 13.6586 5.26963 14.7004C6.32166 15.7422 7.68703 16.4092 9.15544 16.5987C10.6238 16.7882 12.1138 16.4896 13.3958 15.749C14.6778 15.0083 15.6808 13.8667 16.2502 12.5M16.6668 15.8333V12.5H13.3335" stroke="#C7CCD3" stroke-width="2" stroke-linecap="round" stroke-linejoin="round"/>
</svg>
