<svg width="24" height="24" viewBox="0 0 24 24" fill="none" xmlns="http://www.w3.org/2000/svg">
<rect width="24" height="24" rx="12" fill="#E5E7F0"/>
<path d="M14.2709 6.4959L13.2185 7.54829L16.4507 10.7805L17.5031 9.72809C17.8219 9.41167 18 8.9804 18 8.53038C18 8.08035 17.8219 7.64908 17.5031 7.33266L16.6663 6.4959C16.3499 6.17713 15.9186 5.999 15.4686 5.999C15.0186 5.999 14.5873 6.17713 14.2709 6.4959ZM12.4239 8.34287L7.37992 13.3845C7.12913 13.6353 6.94631 13.9494 6.85021 14.2916L6.02048 17.2871C5.96657 17.4816 6.02048 17.6926 6.1658 17.8355C6.31112 17.9785 6.51972 18.0348 6.71427 17.9809L9.70973 17.1488C10.0519 17.0527 10.3637 16.8722 10.6168 16.6191L15.6561 11.5751L12.4239 8.34287Z" fill="#7F8A96"/>
</svg>
