<svg width="40" height="40" viewBox="0 0 40 40" fill="none" xmlns="http://www.w3.org/2000/svg">
<g clip-path="url(#clip0_1304_4362)">
<path d="M20 40C31.0457 40 40 31.0457 40 20C40 8.95431 31.0457 5.4282e-06 20 3.49691e-06C8.95431 1.56562e-06 5.49684e-06 8.95431 3.49691e-06 20C1.56562e-06 31.0457 8.9543 40 20 40ZM20 22.0742C18.7728 22.0742 17.7774 21.0788 17.7773 19.8516L17.7773 11.8516C17.7775 10.6244 18.7728 9.62991 20 9.62989C21.2272 9.62989 22.2225 10.6244 22.2227 11.8516L22.2227 19.8516C22.2226 21.0788 21.2273 22.0742 20 22.0742ZM20 30.0742C18.7727 30.0742 17.7773 29.0788 17.7773 27.8516C17.7774 26.6243 18.7727 25.6289 20 25.6289L20.0205 25.6289C21.2476 25.6292 22.2422 26.6244 22.2422 27.8516C22.2422 29.0787 21.2476 30.074 20.0205 30.0742L20 30.0742Z" fill="#C7CCD3"/>
</g>
<defs>
<clipPath id="clip0_1304_4362">
<rect width="40" height="40" fill="white"/>
</clipPath>
</defs>
</svg>
