<svg width="28" height="28" viewBox="0 0 28 28" fill="none" xmlns="http://www.w3.org/2000/svg">
<rect width="28" height="28" rx="12" fill="#FF448B"/>
<path d="M14.3365 15.2521C15.1871 15.2521 15.8766 14.5626 15.8766 13.712C15.8766 12.8614 15.1871 12.1719 14.3365 12.1719C13.4859 12.1719 12.7964 12.8614 12.7964 13.712C12.7964 14.5626 13.4859 15.2521 14.3365 15.2521Z" stroke="white" stroke-width="1.53409" stroke-linecap="round" stroke-linejoin="round"/>
<path d="M10.871 10.6319C10.101 11.402 9.71596 12.557 9.71596 13.7121C9.71596 14.8672 10.101 16.0223 10.871 16.7923M8.56088 9.0918C7.4058 10.2469 6.63574 11.787 6.63574 13.7121C6.63574 15.6373 7.4058 17.1774 8.56088 18.3324M17.8015 16.7923C18.5716 16.0223 18.9566 14.8672 18.9566 13.7121C18.9566 12.557 18.5716 11.402 17.8015 10.6319M20.1117 18.3324C21.2668 17.1774 22.0368 15.6373 22.0368 13.7121C22.0368 11.787 21.2668 10.2469 20.1117 9.0918" stroke="white" stroke-width="1.53409" stroke-linecap="round" stroke-linejoin="round"/>
</svg>
