<svg width="40" height="40" viewBox="0 0 40 40" fill="none" xmlns="http://www.w3.org/2000/svg">
<rect width="40" height="40" rx="20" fill="#F7F8FC"/>
<path d="M22.9398 27.2024C22.8021 27.8806 22.4342 28.4903 21.8984 28.9282C21.3626 29.3662 20.6918 29.6054 19.9998 29.6054C19.3078 29.6054 18.6371 29.3662 18.1013 28.9282C17.5655 28.4903 17.1975 27.8806 17.0598 27.2024H22.9398ZM19.9974 10.4C23.7762 10.4 26.8902 13.202 27.1782 16.826L27.1938 17.0936L27.1998 17.3624L27.1986 21.6896L28.3434 24.794L28.3734 24.896L28.3926 24.9992L28.3986 25.106C28.3986 25.484 28.1634 25.814 27.7722 25.9544L27.6354 25.994L27.4986 26.006H12.501C12.395 26.0045 12.29 25.9854 12.1902 25.9496C11.8458 25.8236 11.619 25.5032 11.6118 25.0904L11.6166 24.95L11.6574 24.794L12.7974 21.6932L12.7998 17.3516L12.8046 17.0816C12.9522 13.3412 16.125 10.4 19.9974 10.4Z" fill="#C7CCD3"/>
</svg>
